<svg id="Layer_1" data-name="Layer 1" xmlns="http://www.w3.org/2000/svg" viewBox="0 0 70.38 61.04"><defs><style>.cls-1{fill:#414141;}</style></defs><title>icon-computer</title><g id="Layer_2" data-name="Layer 2"><g id="Õ_1" data-name="Õ  1"><path class="cls-1" d="M62.22,0H8.16A8.18,8.18,0,0,0,0,8.16V41.22a8.18,8.18,0,0,0,8.16,8.16H26.81c-.11,1-.72,5.09-3.53,5.17h-.22a3.47,3.47,0,0,0-3.26,3.54A3.32,3.32,0,0,0,23.34,61H47.05a3.32,3.32,0,0,0,3.53-2.94,3.47,3.47,0,0,0-3.25-3.54H47.1c-2.83-.08-3.42-4.2-3.52-5.17H62.22a8.18,8.18,0,0,0,8.16-8.16V8.16A8.18,8.18,0,0,0,62.22,0ZM43.52,57.25H26.86c2.67-1.87,3.64-5.62,3.77-7.87h9.13C39.88,51.63,40.85,55.38,43.52,57.25Zm23-16a4.35,4.35,0,0,1-4.35,4.35h-54a4.35,4.35,0,0,1-4.35-4.35V8.16A4.35,4.35,0,0,1,8.16,3.81H62.22a4.35,4.35,0,0,1,4.35,4.35Z"/><path class="cls-1" d="M35.19,39.06a2.15,2.15,0,1,0,2.15,2.15h0A2.16,2.16,0,0,0,35.19,39.06Z"/><path class="cls-1" d="M43.41,21.29,29,10.72a1.76,1.76,0,0,0-2.45.37,1.8,1.8,0,0,0-.33,1.21L28,30.05a1.77,1.77,0,0,0,1.12,1.47,1.88,1.88,0,0,0,.62.11,1.75,1.75,0,0,0,1.19-.47l3.87-3.6,4.05,7.13a1.72,1.72,0,1,0,3-1.69l-4-7.12,5-1.46A1.77,1.77,0,0,0,44.1,23,1.75,1.75,0,0,0,43.41,21.29Zm-8.71,1.8h0a1.43,1.43,0,0,0-.34.14h0a1.44,1.44,0,0,0-.32.23h0l-2.89,2.69-1-10.32L38.47,22Z"/></g></g></svg>