<svg id="Layer_1" data-name="Layer 1" xmlns="http://www.w3.org/2000/svg" viewBox="0 0 81.7 83.72"><defs><style>.cls-1{fill:#414141;}</style></defs><title>icon-lightbulb</title><g id="Layer_2" data-name="Layer 2"><g id="Õ_1" data-name="Õ  1"><path class="cls-1" d="M60.13,50.89a21.77,21.77,0,0,0,2.73-10.55,22,22,0,0,0-43.95-2.1q0,1,0,2.1a21.77,21.77,0,0,0,2.73,10.55h0s.18.34.47.82l.23.42.12.14a26.67,26.67,0,0,0,1.63,2.31l1.3,1.63c1.56,1.93,3.49,4.32,4,5.76a23.59,23.59,0,0,1,1.47,5.72,2,2,0,0,0,2,1.84h16a2,2,0,0,0,2-1.83A23.44,23.44,0,0,1,52.33,62c.54-1.44,2.48-3.84,4-5.76l1.3-1.63c.69-.89,1.23-1.68,1.63-2.31a.76.76,0,0,0,.11-.14c.09-.14.16-.28.24-.41.29-.49.45-.81.47-.83Zm-6.87,2.84c-1.92,2.37-3.9,4.83-4.67,6.85a31,31,0,0,0-1.44,5H34.62a31,31,0,0,0-1.44-5c-.77-2-2.75-4.48-4.67-6.84l-1.26-1.59a22.56,22.56,0,0,1-1.69-2.44,18.32,18.32,0,0,1-2.65-9.37,18,18,0,1,1,36,0,18.28,18.28,0,0,1-2.65,9.36,22.69,22.69,0,0,1-1.69,2.45C54.13,52.65,53.7,53.18,53.26,53.73Z"/><path class="cls-1" d="M50.21,73.81a2,2,0,0,0-2-2H33.56a2,2,0,0,0-2,2v.8A9.1,9.1,0,0,0,33.79,81a9.21,9.21,0,0,0,7.09,2.7A9.27,9.27,0,0,0,48,81a9.12,9.12,0,0,0,2.23-6.37ZM45,78.28a5.47,5.47,0,0,1-4.14,1.4,5.48,5.48,0,0,1-4.14-1.4,4.67,4.67,0,0,1-1.12-2.47H46.14A4.59,4.59,0,0,1,45,78.28Z"/><path class="cls-1" d="M37.36,26.57A16.17,16.17,0,0,0,26.64,37.94a2,2,0,0,0,1.45,2.43h0a2,2,0,0,0,2.43-1.45,12.16,12.16,0,0,1,8.05-8.54,2,2,0,0,0-1.21-3.81Z"/><path class="cls-1" d="M40.85,12.14a2,2,0,0,0,2-2V2a2,2,0,0,0-4,0v8.14A2,2,0,0,0,40.85,12.14Z"/><path class="cls-1" d="M17.72,20.54a2,2,0,0,0,2.83-2.83L14.8,12A2,2,0,0,0,12,14.79Z"/><path class="cls-1" d="M12.14,40.84a2,2,0,0,0-2-2H2a2,2,0,0,0,0,4h8.14A2,2,0,0,0,12.14,40.84Z"/><path class="cls-1" d="M17.71,61.15,12,66.9a2,2,0,0,0,2.83,2.83L20.54,64a2,2,0,0,0-2.83-2.82Z"/><path class="cls-1" d="M64,61.15A2,2,0,0,0,61.15,64l5.75,5.76a2,2,0,0,0,2.83,0h0a2,2,0,0,0,0-2.83h0Z"/><path class="cls-1" d="M79.7,38.85H71.56a2,2,0,0,0,0,4H79.7a2,2,0,0,0,0-4Z"/><path class="cls-1" d="M62.57,21.14A2,2,0,0,0,64,20.55l5.76-5.75A2,2,0,0,0,66.91,12l-5.76,5.75a2,2,0,0,0,1.42,3.42Z"/></g></g></svg>