<?xml version="1.0" encoding="utf-8"?>
<!-- Generator: Adobe Illustrator 23.0.1, SVG Export Plug-In . SVG Version: 6.00 Build 0)  -->
<svg version="1.1" id="Layer_1" xmlns="http://www.w3.org/2000/svg" xmlns:xlink="http://www.w3.org/1999/xlink" x="0px" y="0px"
	 viewBox="0 0 360 360" style="enable-background:new 0 0 360 360;" xml:space="preserve">
<style type="text/css">
	.st0{fill:#414141;}
</style>
<g>
	<path class="st0" d="M-96.41,148.1h-221.18c-18.41,0-33.39,14.98-33.39,33.39v135.24c0,18.42,14.98,33.4,33.39,33.4h76.28
		c-0.43,3.97-2.91,20.82-14.42,21.16c-0.31,0.01-0.62,0.04-0.92,0.08c-9.35,1.4-13.77,8.35-13.32,14.49
		c0.44,5.98,5.56,12.03,14.47,12.03h97.01c8.91,0,14.02-6.05,14.46-12.03c0.46-6.14-3.97-13.08-13.31-14.48
		c-0.31-0.05-0.61-0.07-0.92-0.08c-11.58-0.35-14.01-17.2-14.42-21.16h76.27c18.41,0,33.39-14.98,33.39-33.4V181.49
		C-63.02,163.08-78,148.1-96.41,148.1z M-172.91,382.32h-68.18c10.92-7.62,14.91-22.97,15.41-32.18h37.36
		C-187.82,359.35-183.83,374.71-172.91,382.32z M-78.6,316.74c0,9.83-7.99,17.82-17.81,17.82h-221.18c-9.82,0-17.81-8-17.81-17.82
		V181.49c0-9.82,7.99-17.81,17.81-17.81h221.18c9.82,0,17.81,7.99,17.81,17.81V316.74z"/>
	<path class="st0" d="M-206.99,307.9c-4.85,0-8.79,3.93-8.79,8.79c0,4.85,3.93,8.77,8.79,8.77c4.83,0,8.78-3.92,8.78-8.77
		C-198.21,311.83-202.16,307.9-206.99,307.9z"/>
	<path class="st0" d="M-173.37,235.19l-58.78-43.23c-2.27-1.68-5.32-1.85-7.77-0.46c-2.46,1.39-3.86,4.1-3.6,6.91l6.93,72.63
		c0.26,2.72,2.04,5.05,4.58,6.01c0.83,0.32,1.69,0.47,2.54,0.47c1.78,0,3.53-0.67,4.88-1.92l15.83-14.74l16.57,29.16
		c1.32,2.32,3.74,3.62,6.23,3.62c1.2,0,2.41-0.3,3.53-0.94c3.44-1.95,4.64-6.33,2.69-9.76l-16.55-29.14l20.66-5.97
		c2.62-0.76,4.58-2.94,5.06-5.62C-170.08,239.53-171.17,236.81-173.37,235.19z M-208.99,242.58c-0.03,0.01-0.05,0.02-0.08,0.03
		c-0.48,0.15-0.96,0.34-1.42,0.6c-0.02,0.01-0.03,0.01-0.05,0.02l0,0c-0.47,0.27-0.89,0.58-1.27,0.93
		c-0.02,0.02-0.05,0.03-0.07,0.05l-11.83,11.01l-4.03-42.25l34.18,25.14L-208.99,242.58z"/>
</g>
<g>
	<path class="st0" d="M619.9,187.02c7.59-14.27,11.18-28.12,11.18-43.14c0-49.59-40.34-89.93-89.93-89.93
		c-49.59,0-89.93,40.34-89.93,89.93c0,15.02,3.59,28.87,11.18,43.14c0.03,0.05,0.04,0.11,0.06,0.16c0.06,0.11,0.73,1.39,1.92,3.39
		c0.33,0.57,0.61,1.13,0.95,1.7c0.13,0.22,0.31,0.38,0.46,0.58c1.64,2.58,3.84,5.82,6.67,9.44c1.65,2.11,3.47,4.36,5.34,6.68
		c6.37,7.89,14.29,17.7,16.53,23.57c5.09,13.34,5.99,23.33,5.99,23.41c0.34,4.25,3.89,7.53,8.16,7.53h32.67h32.66
		c4.25,0,7.8-3.28,8.16-7.51c0.01-0.1,0.91-10.09,5.99-23.43c2.24-5.88,10.17-15.69,16.54-23.58c1.87-2.32,3.68-4.56,5.33-6.67
		c2.83-3.62,5.03-6.86,6.67-9.44c0.15-0.2,0.33-0.36,0.46-0.58c0.34-0.57,0.62-1.13,0.95-1.69c1.2-2,1.86-3.27,1.92-3.39
		C619.86,187.13,619.87,187.07,619.9,187.02z M591.77,198.66c-7.83,9.7-15.93,19.73-19.1,28.03c-3.14,8.24-4.91,15.4-5.88,20.41
		h-25.64h-25.64c-0.97-5.01-2.74-12.17-5.88-20.4c-3.16-8.3-11.26-18.33-19.09-28.03c-1.82-2.25-3.58-4.43-5.18-6.48
		c-3.25-4.16-5.56-7.75-6.91-10.01c-7.37-12.88-10.85-25.1-10.85-38.3c0-40.56,33-73.57,73.56-73.57c40.56,0,73.56,33,73.56,73.57
		c0,13.19-3.49,25.42-10.85,38.29c-1.35,2.26-3.66,5.86-6.91,10.01C595.35,194.24,593.58,196.42,591.77,198.66z"/>
	<path class="st0" d="M579.29,280.82c0-4.52-3.66-8.18-8.18-8.18h-59.92c-4.52,0-8.18,3.66-8.18,8.18v3.28
		c-0.15,2.74-0.31,15.88,9.11,26.05c6.79,7.32,16.55,11.04,29.03,11.04c12.48,0,22.24-3.71,29.03-11.04
		c9.42-10.17,9.26-23.31,9.11-26.05V280.82z M558.09,299.12c-3.56,3.78-9.27,5.7-16.94,5.7c-7.67,0-13.38-1.92-16.94-5.7
		c-2.96-3.14-4.13-7.16-4.58-10.12h43.04C562.21,291.96,561.04,295.98,558.09,299.12z"/>
	<path class="st0" d="M526.71,87.53c-21.5,6.84-38.31,24.66-43.85,46.52c-1.11,4.38,1.54,8.83,5.92,9.94
		c0.68,0.17,1.35,0.25,2.02,0.25c3.66,0,6.99-2.47,7.93-6.17c4.16-16.42,16.79-29.81,32.94-34.94c4.31-1.37,6.69-5.97,5.32-10.28
		C535.62,88.55,531.02,86.17,526.71,87.53z"/>
	<path class="st0" d="M541.02,28.48c4.52,0,8.18-3.66,8.18-8.18V-13c0-4.52-3.66-8.18-8.18-8.18c-4.52,0-8.18,3.66-8.18,8.18v33.3
		C532.84,24.81,536.5,28.48,541.02,28.48z"/>
	<path class="st0" d="M446.38,62.87c1.6,1.6,3.69,2.4,5.79,2.4c2.09,0,4.19-0.8,5.79-2.4c3.2-3.19,3.2-8.38,0-11.57l-23.54-23.54
		c-3.2-3.2-8.38-3.2-11.57,0c-3.2,3.19-3.2,8.38,0,11.57L446.38,62.87z"/>
	<path class="st0" d="M423.53,145.92c0-4.52-3.66-8.18-8.18-8.18h-33.3c-4.52,0-8.18,3.66-8.18,8.18c0,4.52,3.66,8.18,8.18,8.18
		h33.3C419.87,154.11,423.53,150.44,423.53,145.92z"/>
	<path class="st0" d="M446.35,228.99l-23.54,23.54c-3.2,3.19-3.2,8.38,0,11.57c1.6,1.6,3.69,2.4,5.79,2.4s4.19-0.8,5.79-2.4
		l23.54-23.54c3.2-3.19,3.2-8.38,0-11.57C454.73,225.8,449.55,225.8,446.35,228.99z"/>
	<path class="st0" d="M635.62,229.02c-3.2-3.2-8.38-3.2-11.57,0c-3.19,3.19-3.19,8.38,0,11.57l23.54,23.54
		c1.6,1.6,3.69,2.4,5.79,2.4s4.19-0.8,5.79-2.4c3.2-3.19,3.2-8.38,0-11.57L635.62,229.02z"/>
	<path class="st0" d="M699.95,137.78h-33.3c-4.52,0-8.18,3.66-8.18,8.18c0,4.52,3.66,8.18,8.18,8.18h33.3
		c4.52,0,8.18-3.66,8.18-8.18C708.13,141.45,704.47,137.78,699.95,137.78z"/>
	<path class="st0" d="M629.86,65.29c2.09,0,4.19-0.8,5.79-2.4l23.54-23.54c3.2-3.19,3.2-8.38,0-11.57c-3.19-3.2-8.37-3.2-11.57,0
		l-23.54,23.54c-3.2,3.19-3.2,8.38,0,11.57C625.68,64.49,627.77,65.29,629.86,65.29z"/>
</g>
<g>
	<path class="st0" d="M-126.65,163.68h-234.7c-9.3,0-16.87,7.57-16.87,16.87v184.91c0,9.3,7.57,16.87,16.87,16.87h234.7
		c9.3,0,16.87-7.57,16.87-16.87V180.54C-109.78,171.24-117.35,163.68-126.65,163.68z M-361.35,180.04h234.7c0.26,0,0.5,0.24,0.5,0.5
		v36.11h-235.71v-36.11C-361.85,180.29-361.61,180.04-361.35,180.04z M-126.65,365.96h-234.7c-0.26,0-0.5-0.24-0.5-0.5V233.02
		h235.71v132.43C-126.15,365.71-126.39,365.96-126.65,365.96z"/>
	<path class="st0" d="M-303.01,207.15c5,0,9.05-4.05,9.05-9.06c0-4.99-4.05-9.05-9.05-9.05c-5,0-9.06,4.06-9.06,9.05
		C-312.07,203.09-308.01,207.15-303.01,207.15z"/>
	<path class="st0" d="M-271.78,207.15c5,0,9.06-4.05,9.06-9.06c0-4.99-4.06-9.05-9.06-9.05c-5,0-9.06,4.06-9.06,9.05
		C-280.84,203.09-276.78,207.15-271.78,207.15z"/>
	<path class="st0" d="M-334.24,207.15c5,0,9.06-4.05,9.06-9.06c0-4.99-4.06-9.05-9.06-9.05c-5,0-9.06,4.06-9.06,9.05
		C-343.29,203.09-339.24,207.15-334.24,207.15z"/>
	<polygon class="st0" points="-329.63,306.41 -276.46,329.24 -276.46,311.42 -305.66,298.89 -276.46,286.35 -276.46,268.54 
		-329.63,291.37 	"/>
	<polygon class="st0" points="-211.54,286.35 -182.34,298.89 -211.54,311.42 -211.54,329.24 -158.37,306.41 -158.37,291.37 
		-211.54,268.54 	"/>
	<polygon class="st0" points="-261.13,337.52 -244.32,337.52 -226.23,260.08 -243.04,260.08 	"/>
</g>
<path class="st0" d="M294.31,127.06l-61.44-61.43c-3.07-3.07-8.5-3.07-11.57,0L81.04,205.92c-0.06,0.06-0.09,0.12-0.15,0.18
	c-0.12,0.13-0.22,0.27-0.34,0.41c-0.33,0.39-0.61,0.8-0.85,1.24c-0.09,0.16-0.18,0.32-0.25,0.48c-0.28,0.59-0.5,1.19-0.63,1.82
	c0,0.02-0.01,0.03-0.02,0.05l0,0.03c0,0.01,0,0.02-0.01,0.03l-15.34,76.72c-0.54,2.68,0.3,5.46,2.24,7.39
	c1.55,1.55,3.64,2.4,5.79,2.4c0.54,0,1.07-0.05,1.61-0.16l76.73-15.35c0,0,0,0,0,0l0.04-0.01c0.03,0,0.05-0.02,0.08-0.03
	c0.61-0.13,1.21-0.35,1.78-0.62c0.17-0.08,0.33-0.17,0.49-0.26c0.43-0.24,0.84-0.53,1.24-0.85c0.13-0.11,0.28-0.21,0.4-0.33
	c0.06-0.05,0.13-0.09,0.18-0.15l140.28-140.28c1.53-1.54,2.4-3.62,2.4-5.79C296.71,130.68,295.85,128.6,294.31,127.06z
	 M227.09,82.99l19.15,19.15L117.54,230.85l-19.14-19.14L227.09,82.99z M81.9,278.06l9.95-49.75l39.8,39.8L81.9,278.06z
	 M148.25,261.56l-19.14-19.14l128.71-128.71l19.14,19.14L148.25,261.56z"/>
<path class="st0" d="M613.75,239.62h-187.5c-15.93,0-28.88,12.96-28.88,28.88V393.5c0,15.92,12.96,28.88,28.88,28.88h187.5
	c15.93,0,28.88-12.96,28.88-28.88V268.5C642.63,252.58,629.68,239.62,613.75,239.62z M574.93,331l52.15-52.15v104.31L574.93,331z
	 M426.25,255.17h187.5c4.11,0,7.74,1.9,10.19,4.83l-84.56,84.56c-5.15,5.15-12.03,7.98-19.37,7.98c-7.34,0-14.23-2.84-19.37-7.98
	L416.07,260C418.51,257.07,422.15,255.17,426.25,255.17z M465.07,331l-52.15,52.16V278.84L465.07,331z M613.75,406.83h-187.5
	c-4.11,0-7.74-1.91-10.18-4.83l60-60l13.56,13.56c8.09,8.09,18.87,12.54,30.37,12.54c11.5,0,22.29-4.45,30.37-12.54l13.56-13.56
	l60,60C621.49,404.92,617.85,406.83,613.75,406.83z"/>
</svg>
